HIERARCHY
ROOT SpineBase
{
  OFFSET 0.000000 0.000000 0.000000
  CHANNELS 6 Xposition Yposition Zposition Zrotation Xrotation Yrotation
  JOINT SpineMid
  {
    OFFSET 0.000000 33.693576 0.000000
    CHANNELS 3 Zrotation Xrotation Yrotation
    JOINT SpineShoulder
    {
      OFFSET -0.207325 24.999524 -0.947608
      CHANNELS 3 Zrotation Xrotation Yrotation
      JOINT Neck
      {
        OFFSET -0.149129 8.251840 -0.688911
        CHANNELS 3 Zrotation Xrotation Yrotation
        JOINT Head
        {
          OFFSET 0.310823 13.267941 6.073053
          CHANNELS 3 Zrotation Xrotation Yrotation
          End Site
          {
            OFFSET 0 0 0
          }
        }
      }
      JOINT ShoulderLeft
      {
        OFFSET -15.366390 -8.142711 -5.999812
        CHANNELS 3 Zrotation Xrotation Yrotation
        JOINT ElbowLeft
        {
          OFFSET -4.491877 -26.067057 1.994680
          CHANNELS 3 Zrotation Xrotation Yrotation
          JOINT WristLeft
          {
            OFFSET -0.135996 -20.779666 8.677561
            CHANNELS 3 Zrotation Xrotation Yrotation
            JOINT HandLeft
            {
              OFFSET 0.970472 -2.806448 0.496403
              CHANNELS 3 Zrotation Xrotation Yrotation
              JOINT HandTipLeft
              {
                OFFSET 1.878937 -6.952637 0.535300
                CHANNELS 3 Zrotation Xrotation Yrotation
                End Site
                {
                  OFFSET 0 0 0
                }
              }
              JOINT ThumbLeft
              {
                OFFSET 2.588869 6.068824 -4.820022
                CHANNELS 3 Zrotation Xrotation Yrotation
                End Site
                {
                  OFFSET 0 0 0
                }
              }
            }
          }
        }
      }
      JOINT ShoulderRight
      {
        OFFSET 16.257714 -6.230140 -5.731718
        CHANNELS 3 Zrotation Xrotation Yrotation
        JOINT ElbowRight
        {
          OFFSET 7.847818 -26.555446 5.456890
          CHANNELS 3 Zrotation Xrotation Yrotation
          JOINT WristRight
          {
            OFFSET -1.036268 -21.391743 7.418271
            CHANNELS 3 Zrotation Xrotation Yrotation
            JOINT HandRight
            {
              OFFSET 1.088867 -1.968328 0.242095
              CHANNELS 3 Zrotation Xrotation Yrotation
              JOINT HandTipRight
              {
                OFFSET 0.463648 -1.426322 0.560274
                CHANNELS 3 Zrotation Xrotation Yrotation
                End Site
                {
                  OFFSET 0 0 0
                }
              }
              JOINT ThumbRight
              {
                OFFSET 0.360008 1.311964 -1.209752
                CHANNELS 3 Zrotation Xrotation Yrotation
                End Site
                {
                  OFFSET 0 0 0
                }
              }
            }
          }
        }
      }
    }
  }
  JOINT HipLeft
  {
    OFFSET -7.762738 1.345343 -3.314147
    CHANNELS 3 Zrotation Xrotation Yrotation
    JOINT KneeLeft
    {
      OFFSET 0.418811 -31.231668 -1.110970
      CHANNELS 3 Zrotation Xrotation Yrotation
      JOINT AnkleLeft
      {
        OFFSET -1.293744 -31.574816 0.150859
        CHANNELS 3 Zrotation Xrotation Yrotation
        JOINT FootLeft
        {
          OFFSET -0.351989 -2.464042 -12.711828
          CHANNELS 3 Zrotation Xrotation Yrotation
          End Site
          {
            OFFSET 0 0 0
          }
        }
      }
    }
  }
  JOINT HipRight
  {
    OFFSET 6.382661 1.803702 -3.659611
    CHANNELS 3 Zrotation Xrotation Yrotation
    JOINT KneeRight
    {
      OFFSET 3.131931 -30.357917 -2.794378
      CHANNELS 3 Zrotation Xrotation Yrotation
      JOINT AnkleRight
      {
        OFFSET 1.070497 -31.919523 -0.548348
        CHANNELS 3 Zrotation Xrotation Yrotation
        JOINT FootRight
        {
          OFFSET -0.838696 -1.894207 -14.364823
          CHANNELS 3 Zrotation Xrotation Yrotation
          End Site
          {
            OFFSET 0 0 0
          }
        }
      }
    }
  }
}
MOTION
Frames: 13
Frame Time: 0.033333
41.603364 66.235256 212.311021 0.007922 -0.558398 1.089088 0.002693 0.558448 -1.089062 -0.000000 0.000000 0.000000 1.065690 -0.852652 -0.461571 0.000000 0.000000 0.000000 1.084586 -0.091892 0.099858 -0.245371 2.468446 0.219027 -11.815891 -7.984333 -5.365646 16.208657 19.205228 5.973557 0.000000 0.000000 0.000000 0.000000 0.000000 0.000000 0.681304 0.498732 0.284181 -0.221141 0.233348 -0.164993 -23.411815 -1.844209 -4.655466 17.894099 1.380097 1.281968 0.000000 0.000000 0.000000 0.000000 0.000000 0.000000 0.398524 -0.181578 -1.114768 -0.410168 0.732180 0.027025 -0.000000 0.000000 0.000000 0.000000 0.000000 0.000000 0.002693 0.558448 -1.089062 -0.000000 0.000000 0.000000 0.272503 -4.589868 -0.032063 0.000000 0.000000 0.000000
41.598555 66.240527 212.307867 0.002888 -0.568089 1.085383 0.007874 0.568042 -1.085408 -0.000000 0.000000 0.000000 1.142409 -1.028020 -0.490719 0.000000 0.000000 0.000000 1.094464 -0.056755 0.094226 -0.021718 2.467522 0.317382 -13.118616 -8.131019 -5.846755 19.602032 20.874497 5.990108 0.000000 0.000000 0.000000 0.000000 0.000000 0.000000 -0.000000 0.000000 0.000000 -3.074579 8.770537 -1.288872 -34.735971 -10.506199 -12.576881 25.480945 7.403282 2.659785 0.000000 0.000000 0.000000 0.000000 0.000000 0.000000 0.406696 -0.241643 -1.112034 -0.414482 0.801787 0.028390 -0.000000 0.000000 0.000000 0.000000 0.000000 0.000000 0.007874 0.568042 -1.085408 -0.000000 0.000000 0.000000 0.107222 -0.821397 -0.474658 0.000000 0.000000 0.000000
41.591283 66.246182 212.308049 -0.005228 -0.579055 1.085095 0.016193 0.578852 -1.085203 -0.000000 0.000000 0.000000 1.207954 -1.198066 -0.514820 0.000000 0.000000 0.000000 1.110491 -0.044672 0.093262 0.491589 2.536459 0.528226 -15.794406 -8.181900 -6.746766 17.713477 21.501085 7.061341 0.000000 0.000000 0.000000 0.000000 0.000000 0.000000 -0.000000 0.000000 0.000000 -7.969298 18.344761 -2.507071 -39.392989 -19.209873 -21.550940 29.672307 13.581270 4.866561 0.000000 0.000000 0.000000 0.000000 0.000000 0.000000 0.419187 -0.307121 -1.112872 -0.420154 0.877970 0.029932 -0.000000 0.000000 0.000000 0.000000 0.000000 0.000000 0.016193 0.578852 -1.085203 -0.000000 0.000000 0.000000 0.243898 -3.778294 -0.224393 0.000000 0.000000 0.000000
41.581793 66.252485 212.310778 -0.017611 -0.591663 1.079250 0.028753 0.591226 -1.079489 -0.000000 0.000000 0.000000 1.274993 -1.385789 -0.538852 0.000000 0.000000 0.000000 1.141437 -0.056634 0.097834 0.922322 1.655781 0.727585 -18.656456 -4.654875 -6.117787 20.844546 15.295453 6.063372 0.000000 0.000000 0.000000 0.000000 0.000000 0.000000 -0.000000 0.000000 0.000000 -13.294375 27.583376 -2.949399 -44.566005 -25.077323 -31.062459 25.049018 16.359660 4.568638 0.000000 0.000000 0.000000 0.000000 0.000000 0.000000 0.428020 -0.344133 -1.107624 -0.417306 0.927458 0.030652 -0.000000 0.000000 0.000000 0.000000 0.000000 0.000000 0.430582 -0.125175 -1.192485 -0.416661 0.707880 0.113936 0.247600 -3.781287 -0.260015 0.000000 0.000000 0.000000
41.572836 66.258258 212.314277 -0.027713 -0.606045 1.081116 0.039145 0.605414 -1.081469 -0.000000 0.000000 0.000000 1.332287 -1.570299 -0.558450 0.000000 0.000000 0.000000 1.171249 -0.079648 0.104346 0.731431 1.453526 0.660232 -18.176920 -4.193797 -5.769421 21.585198 13.158255 5.470036 0.000000 0.000000 0.000000 0.000000 0.000000 0.000000 -0.000000 0.000000 0.000000 -20.298402 37.676901 -2.255975 -40.797625 -36.098038 -38.274291 17.325544 21.344872 7.875376 0.000000 0.000000 0.000000 0.000000 0.000000 0.000000 0.409794 -0.345328 -1.108792 -0.389009 0.943384 0.029684 -0.000000 0.000000 0.000000 0.000000 0.000000 0.000000 0.415170 -0.111628 -1.192197 -0.390871 0.709060 0.111526 0.251953 -3.780631 -0.304291 0.000000 0.000000 0.000000
41.562440 66.263471 212.321335 -0.038042 -0.621568 1.066170 0.049603 0.620752 -1.066645 -0.000000 0.000000 0.000000 1.369484 -1.727811 -0.569832 0.000000 0.000000 0.000000 1.178069 -0.092478 0.107220 0.714937 1.688288 0.648526 -18.318992 -5.418899 -6.374023 21.364574 15.166785 5.815462 0.000000 0.000000 0.000000 0.000000 0.000000 0.000000 -0.000000 0.000000 0.000000 -24.118001 41.860442 -1.423523 -36.228754 -44.176836 -41.089753 9.231086 25.786189 12.319779 0.000000 0.000000 0.000000 0.000000 0.000000 0.000000 0.341653 -0.354820 -1.091370 -0.310605 0.969828 0.026676 -0.000000 0.000000 0.000000 0.000000 0.000000 0.000000 0.049603 0.620752 -1.066645 -0.000000 0.000000 0.000000 0.255902 -3.781889 -0.343408 0.000000 0.000000 0.000000
41.551676 66.265699 212.331218 -0.047551 -0.641062 1.042994 0.059215 0.640090 -1.043591 -0.000000 0.000000 0.000000 1.407323 -1.873784 -0.581799 0.000000 0.000000 0.000000 1.170111 -0.102620 0.108456 0.723008 2.389443 0.632457 -18.772479 -8.669395 -7.997660 20.101035 17.047971 6.114052 0.000000 0.000000 0.000000 0.000000 0.000000 0.000000 -0.000000 0.000000 0.000000 -25.713662 42.033981 -1.314566 -22.624237 -52.609283 -34.517411 -0.465378 28.718394 16.532320 0.000000 0.000000 0.000000 0.000000 0.000000 0.000000 0.267145 -0.325384 -1.065083 -0.225858 0.961440 0.022816 -0.000000 0.000000 0.000000 0.000000 0.000000 0.000000 0.059215 0.640090 -1.043591 -0.000000 0.000000 0.000000 0.258596 -3.779182 -0.372101 0.000000 0.000000 0.000000
41.542014 66.265999 212.341584 -0.053161 -0.662651 1.004162 0.064770 0.661617 -1.004843 -0.000000 0.000000 0.000000 1.438155 -2.002438 -0.591160 0.000000 0.000000 0.000000 1.176709 -0.123620 0.112808 0.690790 2.595058 0.613620 -18.689302 -10.055988 -8.621393 18.599332 17.045024 6.173151 0.000000 0.000000 0.000000 0.000000 0.000000 0.000000 -0.000000 0.000000 0.000000 -22.463976 38.500093 -2.119165 -25.969160 -48.267570 -34.630676 7.819283 28.022357 14.545436 0.000000 0.000000 0.000000 0.000000 0.000000 0.000000 0.284840 -0.274954 -1.026509 -0.236829 0.932475 0.022850 -0.000000 0.000000 0.000000 0.000000 0.000000 0.000000 0.064770 0.661617 -1.004843 -0.000000 0.000000 0.000000 0.259526 -3.778583 -0.381827 0.000000 0.000000 0.000000
41.532434 66.263221 212.351144 -0.055803 -0.682763 0.957841 0.067214 0.681734 -0.958573 -0.125076 -0.816323 -0.026071 1.595148 -1.312802 -0.597695 0.000000 0.000000 0.000000 1.313452 0.667916 0.125689 0.748468 2.292501 0.642440 -18.888683 -9.002557 -8.234315 19.535572 17.665728 6.304679 0.000000 0.000000 0.000000 0.000000 0.000000 0.000000 0.124718 0.816378 0.024292 -15.853642 29.315454 -3.068714 -26.193596 -40.868137 -30.045798 14.888461 25.479607 11.865676 0.000000 0.000000 0.000000 0.000000 0.000000 0.000000 0.273742 -0.233038 -0.979496 -0.222149 0.911106 0.021881 -0.000000 0.000000 0.000000 0.000000 0.000000 0.000000 0.067214 0.681734 -0.958573 -0.000000 0.000000 0.000000 0.259369 -3.789752 -0.373966 0.000000 0.000000 0.000000
41.525259 66.263808 212.360325 -0.054588 -0.701816 0.885947 0.065438 0.700888 -0.886681 -0.115038 -0.830030 -0.025423 1.606401 -1.387023 -0.605321 0.000000 0.000000 0.000000 1.320641 0.665891 0.128845 0.651602 1.417099 0.624975 -18.336237 -5.662590 -6.559158 21.601209 14.849619 5.634637 0.000000 0.000000 0.000000 0.000000 0.000000 0.000000 0.932137 0.722222 0.148381 -11.984045 21.248363 -3.137624 -23.659570 -38.216413 -27.970402 12.977952 25.057399 12.149478 0.000000 0.000000 0.000000 0.000000 0.000000 0.000000 0.280026 -0.198866 -0.907775 -0.228827 0.896240 0.021943 -0.000000 0.000000 0.000000 0.000000 0.000000 0.000000 0.065438 0.700888 -0.886681 -0.000000 0.000000 0.000000 0.262349 -3.810133 -0.392616 0.000000 0.000000 0.000000
41.499459 66.254016 212.355031 -0.079981 -0.698221 0.841657 0.090235 0.696970 -0.842693 -0.109757 -0.831401 -0.024970 1.633862 -1.480373 -0.617437 0.000000 0.000000 0.000000 1.342591 0.649565 0.133416 0.327955 2.191903 0.484877 -16.403370 -8.814284 -7.330183 19.116675 16.839282 5.716969 0.000000 0.000000 0.000000 0.000000 0.000000 0.000000 0.908369 0.790332 0.163688 -4.975523 11.208561 -1.793549 -21.451492 -29.829594 -22.251023 8.578508 23.991171 12.246003 0.000000 0.000000 0.000000 0.000000 0.000000 0.000000 0.358978 -0.190661 -0.865758 -0.282137 0.883467 0.024053 -0.000000 0.000000 0.000000 0.000000 0.000000 0.000000 0.090235 0.696970 -0.842693 -0.000000 0.000000 0.000000 0.264245 -3.818006 -0.407375 0.000000 0.000000 0.000000
41.482074 66.248068 212.351850 -0.087475 -0.699810 0.782016 0.097025 0.698550 -0.783142 -0.101406 -0.835860 -0.024297 1.671454 -1.558982 -0.636209 0.000000 0.000000 0.000000 1.372500 0.639820 0.137809 0.196995 2.137510 0.443429 -15.817663 -8.504873 -7.003026 19.779192 16.293581 5.415951 0.000000 0.000000 0.000000 0.000000 0.000000 0.000000 0.101062 0.835902 0.022820 0.151359 3.593469 -0.127791 -10.197063 -28.810032 -18.380337 -5.306320 24.911365 15.574316 0.000000 0.000000 0.000000 0.000000 0.000000 0.000000 0.361198 -0.192800 -0.806047 -0.276699 0.887543 0.023882 -0.000000 0.000000 0.000000 0.000000 0.000000 0.000000 0.097025 0.698550 -0.783142 -0.000000 0.000000 0.000000 0.024670 -0.892708 0.221484 0.000000 0.000000 0.000000
41.509169 66.263539 212.375902 -0.039633 -0.742567 0.688688 0.048560 0.742037 -0.689259 -0.081387 -0.855381 -0.022847 1.746942 -1.604669 -0.679239 0.000000 0.000000 0.000000 1.396380 0.647920 0.141079 0.076180 1.363879 0.421108 -15.610013 -4.978411 -5.421378 18.937436 14.469911 5.492599 0.000000 0.000000 0.000000 0.000000 0.000000 0.000000 0.081055 0.855413 0.021634 3.533285 -1.284610 1.324295 -14.191649 -25.542325 -20.290026 -0.618610 26.242719 15.727484 0.000000 0.000000 0.000000 0.000000 0.000000 0.000000 0.234909 -0.109846 -0.708678 -0.196877 0.849513 0.019850 -0.000000 0.000000 0.000000 0.000000 0.000000 0.000000 0.048560 0.742037 -0.689259 -0.000000 0.000000 0.000000 0.330044 -4.652832 -0.620063 0.000000 0.000000 0.000000
